<svg width="204" height="204" viewBox="0 0 204 204" fill="none" xmlns="http://www.w3.org/2000/svg">
<path d="M170 76.5C170 76.5 167.277 82.1725 161.5 89.3728M102 119C88.3321 119 76.9068 115.496 67.5632 110.5M102 119C115.668 119 127.093 115.496 136.437 110.5M102 119V148.75M34 76.5C34 76.5 37.0062 82.763 43.4033 90.4804M67.5632 110.5L42.5 136M67.5632 110.5C56.8582 104.776 48.8856 97.0942 43.4033 90.4804M136.437 110.5L157.25 136M136.437 110.5C147.745 104.454 156.005 96.222 161.5 89.3728M43.4033 90.4804L17 102M161.5 89.3728L187 102" stroke="black" stroke-width="4" stroke-linecap="round"/>
</svg>
