<svg width="56" height="56" viewBox="0 0 56 56" fill="none" xmlns="http://www.w3.org/2000/svg">
<path d="M25.6667 18.6667L21.4224 16.5445C21.1447 16.4057 20.8384 16.3334 20.5279 16.3334H17.1618C16.6314 16.3334 16.1227 16.5441 15.7476 16.9192L12.2525 20.4143C11.8775 20.7893 11.6667 21.298 11.6667 21.8285L11.6667 36.263C11.6667 36.9317 12.001 37.5562 12.5573 37.9271L24.4242 45.8384C25.1612 46.3297 26.1335 46.2777 26.814 45.7107L39.6667 35" stroke="black"/>
<path fill-rule="evenodd" clip-rule="evenodd" d="M32.3199 28.2476C31.7164 27.4396 30.6059 27.2072 29.7292 27.7055L22.3248 31.9137C21.5422 32.3585 20.5589 32.2257 19.9224 31.5891L17.8819 29.5487C17.0503 28.717 17.1122 27.3509 18.0157 26.598L29.777 16.7969C30.1364 16.4974 30.5895 16.3334 31.0574 16.3334H34.5278C34.8383 16.3334 35.1445 16.4057 35.4222 16.5445L43.2277 20.4473C43.9052 20.786 44.3333 21.4786 44.3333 22.2361L44.3333 38.313C44.3333 40.2371 41.8821 41.0514 40.7308 39.5098L32.3199 28.2476Z" stroke="black"/>
<path d="M2.33333 39.6666V18.6666" stroke="#2329D6" stroke-linecap="round"/>
<path d="M2.33333 39.6666V18.6666" stroke="black" stroke-linecap="round"/>
<path d="M53.6666 39.6666V18.6666" stroke="black" stroke-linecap="round"/>
</svg>
