<svg width="56" height="56" viewBox="0 0 56 56" fill="none" xmlns="http://www.w3.org/2000/svg">
<path d="M25.6665 18.6667L21.4221 16.5445C21.1444 16.4057 20.8382 16.3334 20.5277 16.3334H17.1616C16.6312 16.3334 16.1225 16.5441 15.7474 16.9192L12.2523 20.4143C11.8772 20.7893 11.6665 21.298 11.6665 21.8285L11.6665 36.263C11.6665 36.9317 12.0007 37.5562 12.5571 37.9271L24.424 45.8384C25.1609 46.3297 26.1333 46.2777 26.8137 45.7107L39.6665 35" stroke="#BC0081"/>
<path fill-rule="evenodd" clip-rule="evenodd" d="M32.3201 28.2476C31.7167 27.4396 30.6061 27.2072 29.7294 27.7055L22.325 31.9137C21.5424 32.3585 20.5591 32.2257 19.9226 31.5891L17.8821 29.5487C17.0505 28.717 17.1125 27.3509 18.0159 26.598L29.7772 16.7969C30.1367 16.4974 30.5897 16.3334 31.0576 16.3334H34.528C34.8385 16.3334 35.1447 16.4057 35.4225 16.5445L43.2279 20.4473C43.9055 20.786 44.3335 21.4786 44.3335 22.2361L44.3335 38.313C44.3335 40.2371 41.8824 41.0514 40.7311 39.5098L32.3201 28.2476Z" stroke="#BC0081"/>
<path d="M2.33333 39.6666V18.6666" stroke="#2329D6" stroke-linecap="round"/>
<path d="M2.33333 39.6666V18.6666" stroke="#BC0081" stroke-linecap="round"/>
<path d="M53.6668 39.6666V18.6666" stroke="#BC0081" stroke-linecap="round"/>
</svg>
